<svg width="48" height="48" viewBox="0 0 48 48" fill="none" xmlns="http://www.w3.org/2000/svg">
  <path fill-rule="evenodd" clip-rule="evenodd"
    d="M24 4C12.954 4 4 12.954 4 24C4 33.016 10.27 40.33 18.84 42.743C19.84 42.93 20.16 42.28 20.16 41.7V38.32C14.25 39.46 13.17 35.51 13.17 35.51C12.27 33.26 11.03 32.68 11.03 32.68C9.29 31.5 11.16 31.52 11.16 31.52C13.08 31.66 14.09 33.49 14.09 33.49C15.79 36.34 18.68 35.52 19.79 35.04C19.97 33.84 20.45 33.03 20.98 32.55C16.22 32.07 11.26 30.18 11.26 22.98C11.26 20.62 12.1 18.71 13.46 17.22C13.24 16.74 12.5 14.53 13.63 11.86C13.63 11.86 15.44 11.34 20.14 14.45C21.87 13.98 23.73 13.74 25.59 13.73C27.45 13.74 29.31 13.98 31.04 14.45C35.74 11.34 37.55 11.86 37.55 11.86C38.68 14.53 37.94 16.74 37.72 17.22C39.09 18.71 39.93 20.62 39.93 22.98C39.93 30.2 34.96 32.06 30.18 32.54C30.85 33.13 31.45 34.26 31.45 35.91V41.7C31.45 42.29 31.77 42.94 32.78 42.74C41.33 40.33 47.6 33.02 47.6 24C47.6 12.954 39.046 4 24 4Z"
    fill="#FFFFFF"/>
</svg>
