<svg width="48" height="48" viewBox="0 0 128 128" xmlns="http://www.w3.org/2000/svg">
  <path fill="#E44D26" d="M19.5 114.7L8.9 0h110.2l-10.6 114.6-44.5 12.3"/>
  <path fill="#F16529" d="M64 117.2l35.9-10 9.1-101.8H64"/>
  <path fill="#EBEBEB" d="M64 52.4H45l-1-11.3H64V30.1H32.6l.2 2.6 3 33.8H64v-14.1zM64 84.7h-.2l-15.2-4.1-1-11H36l2 22.6 25.8 7.2H64v-14.7z"/>
  <path fill="#fff" d="M64 52.4v11.4h16.8l-1.6 18.1L64 84.7v14.7l25.8-7.2.2-2.2 3-33.5.3-2.6H64zm0-22.3v11h30.4l.3-2.9.6-6.8.2-1.3H64z"/>
</svg>
