<svg width="111" height="95" viewBox="0 0 111 95" fill="none" xmlns="http://www.w3.org/2000/svg">
<g clip-path="url(#clip0_56_5)">
<path d="M60.3543 79.0695C57.5902 83.2859 51.4098 83.2859 48.6457 79.0695L14.4061 26.8377C11.3544 22.1824 14.694 16 20.2603 16H88.7397C94.306 16 97.6456 22.1824 94.5939 26.8377L60.3543 79.0695Z" fill="#322A2A"/>
<g filter="url(#filter0_d_56_5)">
<path d="M63.5492 69.8913C62.3759 71.7824 59.6241 71.7824 58.4508 69.8913L32.6657 28.3316C31.4258 26.3331 32.863 23.75 35.2149 23.75H86.7851C89.137 23.75 90.5742 26.3331 89.3343 28.3316L63.5492 69.8913Z" fill="#FFFCFF"/>
</g>
<g filter="url(#filter1_d_56_5)">
<path d="M66.8536 50.2918C64.94 53.6799 60.06 53.6799 58.1464 50.2918L47.2272 30.9589C45.3447 27.6258 47.7528 23.5 51.5808 23.5H73.4192C77.2472 23.5 79.6553 27.6258 77.7728 30.9589L66.8536 50.2918Z" fill="#322A2A"/>
</g>
</g>
<defs>
<filter id="filter0_d_56_5" x="28.2101" y="23.75" width="65.5797" height="55.5596" filterUnits="userSpaceOnUse" color-interpolation-filters="sRGB">
<feFlood flood-opacity="0" result="BackgroundImageFix"/>
<feColorMatrix in="SourceAlpha" type="matrix" values="0 0 0 0 0 0 0 0 0 0 0 0 0 0 0 0 0 0 127 0" result="hardAlpha"/>
<feOffset dy="4"/>
<feGaussianBlur stdDeviation="2"/>
<feComposite in2="hardAlpha" operator="out"/>
<feColorMatrix type="matrix" values="0 0 0 0 0 0 0 0 0 0 0 0 0 0 0 0 0 0 0.25 0"/>
<feBlend mode="normal" in2="BackgroundImageFix" result="effect1_dropShadow_56_5"/>
<feBlend mode="normal" in="SourceGraphic" in2="effect1_dropShadow_56_5" result="shape"/>
</filter>
<filter id="filter1_d_56_5" x="40.5735" y="23.5" width="37.853" height="35.3329" filterUnits="userSpaceOnUse" color-interpolation-filters="sRGB">
<feFlood flood-opacity="0" result="BackgroundImageFix"/>
<feColorMatrix in="SourceAlpha" type="matrix" values="0 0 0 0 0 0 0 0 0 0 0 0 0 0 0 0 0 0 127 0" result="hardAlpha"/>
<feOffset dx="-4" dy="4"/>
<feGaussianBlur stdDeviation="1"/>
<feComposite in2="hardAlpha" operator="out"/>
<feColorMatrix type="matrix" values="0 0 0 0 0 0 0 0 0 0 0 0 0 0 0 0 0 0 0.25 0"/>
<feBlend mode="normal" in2="BackgroundImageFix" result="effect1_dropShadow_56_5"/>
<feBlend mode="normal" in="SourceGraphic" in2="effect1_dropShadow_56_5" result="shape"/>
</filter>
<clipPath id="clip0_56_5">
<rect width="111" height="95" fill="white"/>
</clipPath>
</defs>
</svg>
